<svg width="105" height="18" xmlns="http://www.w3.org/2000/svg"><path d="M9 0l2.78 5.925 6.22.95-4.5 4.612L14.562 18 9 14.925 3.438 18 4.5 11.487 0 6.875l6.219-.95zm21.6 0l2.78 5.925 6.22.95-4.5 4.612L36.162 18 30.6 14.925 25.038 18l1.062-6.513-4.5-4.612 6.219-.95zm21.6 0l2.78 5.925 6.22.95-4.5 4.612L57.762 18 52.2 14.925 46.638 18l1.062-6.513-4.5-4.612 6.219-.95zm21.6 0l2.78 5.925 6.22.95-4.5 4.612L79.362 18 73.8 14.925 68.238 18l1.062-6.513-4.5-4.612 6.219-.95zm21.6 0l2.78 5.925 6.22.95-4.5 4.612L100.962 18 95.4 14.925 89.838 18l1.062-6.513-4.5-4.612 6.219-.95z" fill="#F7C602"/></svg>