<svg width="399" height="43" xmlns="http://www.w3.org/2000/svg"><defs><linearGradient x1="29.532%" y1="-6.096%" x2="55.094%" y2="92.156%" id="a"><stop stop-color="#006884" offset="0%"/><stop stop-color="#8AD1D0" offset="100%"/></linearGradient><linearGradient x1="-7.528%" y1="15.759%" x2="91.537%" y2="86.25%" id="b"><stop stop-color="#24BBB6" offset="0%"/><stop stop-color="#DBE692" offset="100%"/></linearGradient><linearGradient x1="49.94%" y1="105.755%" x2="49.94%" y2="-3.127%" id="c"><stop stop-color="#FCC072" offset="0%"/><stop stop-color="#F58A5B" offset="100%"/></linearGradient><linearGradient x1="11.149%" y1="117.837%" x2="90.437%" y2="12.103%" id="d"><stop stop-color="#712B8F" offset="0%"/><stop stop-color="#EA1D27" offset="100%"/></linearGradient></defs><g fill="none" fill-rule="evenodd"><g fill-rule="nonzero"><path d="M123.274 41H5.134c-2.165 0-3.937-1.8-3.937-4V5c0-2.2 1.772-4 3.938-4h118.14c2.165 0 3.937 1.8 3.937 4v32c0 2.2-1.772 4-3.938 4z" fill="#151A25"/><path d="M27.778 20.8c0-3.1 2.56-4.6 2.658-4.7-1.476-2.1-3.642-2.4-4.43-2.5-1.87-.2-3.74 1.1-4.627 1.1-.984 0-2.461-1.1-4.036-1.1-2.068 0-3.938 1.2-5.021 3.1-2.166 3.8-.591 9.4 1.476 12.5 1.083 1.5 2.265 3.2 3.84 3.1 1.575-.1 2.166-1 4.036-1 1.871 0 2.363 1 4.037 1 1.673 0 2.756-1.5 3.74-3 1.182-1.7 1.675-3.4 1.675-3.5-.099-.1-3.348-1.3-3.348-5zm-3.052-9.2c.788-1.1 1.379-2.5 1.28-4-1.181.1-2.756.8-3.544 1.9-.788.9-1.477 2.4-1.28 3.8 1.28.1 2.658-.7 3.544-1.7zm25.499 20.5h-2.166l-1.181-3.8h-4.135l-1.083 3.8h-2.068l4.135-12.9h2.56l3.938 12.9zm-3.741-5.4L45.4 23.3c-.099-.3-.296-1.2-.69-2.4-.098.5-.295 1.4-.59 2.4l-1.083 3.4h3.446zm14.275.7c0 1.6-.394 2.8-1.28 3.8-.788.8-1.674 1.2-2.855 1.2s-2.067-.4-2.56-1.3V36h-2.067V26c0-1 0-2-.099-3.1h1.773l.098 1.5c.69-1.1 1.674-1.7 3.052-1.7 1.083 0 1.969.4 2.658 1.3.886.8 1.28 1.9 1.28 3.4zm-2.068 0c0-.9-.196-1.7-.59-2.2-.394-.6-.985-.9-1.772-.9-.493 0-.985.2-1.379.5-.393.3-.689.8-.787 1.3-.099.3-.099.5-.099.6v1.6c0 .7.197 1.2.591 1.7.394.5.985.7 1.575.7.788 0 1.379-.3 1.772-.9.493-.6.69-1.4.69-2.4zm12.602 0c0 1.6-.394 2.8-1.28 3.8-.787.8-1.673 1.2-2.855 1.2-1.181 0-2.067-.4-2.56-1.3V36h-2.067V26c0-1 0-2-.098-3.1h1.772l.098 1.5c.69-1.1 1.674-1.7 3.052-1.7 1.083 0 1.969.4 2.658 1.3.886.8 1.28 1.9 1.28 3.4zm-2.067 0c0-.9-.197-1.7-.591-2.2-.394-.6-.985-.9-1.772-.9-.492 0-.985.2-1.379.5-.393.3-.689.8-.787 1.3-.099.3-.099.5-.099.6v1.6c0 .7.197 1.2.591 1.7.394.5.985.7 1.575.7.788 0 1.379-.3 1.772-.9.493-.6.69-1.4.69-2.4zm13.881 1.1c0 1.1-.394 2-1.083 2.7-.788.8-1.969 1.1-3.446 1.1-1.378 0-2.46-.3-3.249-.8l.493-1.7c.886.5 1.87.8 2.953.8.788 0 1.378-.2 1.772-.5.394-.4.591-.8.591-1.4 0-.5-.197-1-.492-1.3-.394-.4-.985-.7-1.772-1-2.265-.8-3.348-2.1-3.348-3.7 0-1.1.394-1.9 1.182-2.6.787-.7 1.772-1 3.15-1 1.182 0 2.068.2 2.855.6l-.492 1.7c-.69-.4-1.477-.6-2.461-.6-.69 0-1.28.2-1.674.5-.295.3-.492.7-.492 1.2s.197.9.59 1.3c.296.3.985.6 1.871 1 1.083.4 1.87 1 2.461 1.6.296.5.591 1.2.591 2.1zm6.695-4.1h-2.265v4.5c0 1.1.394 1.7 1.182 1.7.393 0 .689 0 .886-.1l.098 1.6c-.394.2-.886.2-1.575.2-.788 0-1.477-.2-1.87-.7-.493-.5-.69-1.3-.69-2.5v-4.7H84.19v-1.6h1.378v-1.7l1.97-.6v2.3h2.264v1.6zm10.14 3c0 1.4-.394 2.6-1.182 3.5-.886.9-1.969 1.4-3.347 1.4s-2.461-.5-3.249-1.4c-.787-.9-1.181-2-1.181-3.4s.394-2.6 1.28-3.5c.787-.9 1.969-1.4 3.347-1.4s2.461.5 3.249 1.4c.69.9 1.083 2 1.083 3.4zm-2.166.1c0-.9-.197-1.6-.59-2.2a2.105 2.105 0 0 0-1.871-1.1c-.788 0-1.477.4-1.87 1.1-.395.6-.592 1.4-.592 2.2 0 .9.197 1.6.591 2.2.394.7 1.083 1.1 1.87 1.1.788 0 1.379-.4 1.871-1.1.394-.6.591-1.4.591-2.2zm8.762-2.9c-.197 0-.394-.1-.69-.1-.688 0-1.279.3-1.673.8-.295.5-.492 1.1-.492 1.8V32h-2.067v-6.4c0-1.1 0-2-.099-2.9h1.772l.099 1.8h.098c.197-.6.59-1.1.985-1.5.492-.3.984-.5 1.476-.5h.493v2.1h.098zm9.057 2.4c0 .4 0 .7-.098.9h-6.104c0 .9.295 1.6.886 2.1.492.4 1.181.7 1.97.7.885 0 1.771-.1 2.46-.4l.296 1.4c-.886.4-1.87.6-3.052.6-1.379 0-2.56-.4-3.348-1.3-.787-.8-1.181-2-1.181-3.4s.394-2.6 1.083-3.5c.788-1 1.87-1.5 3.249-1.5 1.28 0 2.363.5 2.953 1.5.69.8.886 1.8.886 2.9zm-1.87-.5c0-.6-.099-1.1-.394-1.6-.394-.6-.886-.9-1.575-.9-.69 0-1.182.3-1.575.8-.296.4-.493 1-.591 1.6h4.135v.1zM45.893 11.3c0 1.1-.295 2-.984 2.6-.591.5-1.477.8-2.659.8-.59 0-1.083 0-1.476-.1V8.4c.492-.1 1.083-.1 1.772-.1 1.083 0 1.87.2 2.461.7.492.5.886 1.3.886 2.3zm-1.083 0c0-.7-.197-1.3-.59-1.7-.394-.4-.985-.6-1.674-.6-.296 0-.591 0-.788.1v4.7h.69c.787 0 1.378-.2 1.771-.6.394-.4.591-1.1.591-1.9zm6.596 1c0 .7-.197 1.3-.59 1.7-.394.5-.985.7-1.674.7-.69 0-1.182-.2-1.575-.7-.394-.4-.591-1-.591-1.7s.197-1.3.59-1.7c.394-.5.985-.7 1.674-.7.69 0 1.182.2 1.576.7.393.4.59 1 .59 1.7zm-.984 0c0-.4-.099-.8-.296-1.1-.197-.4-.492-.5-.886-.5-.393 0-.689.2-.886.5-.197.3-.295.7-.295 1.1 0 .4.098.8.295 1.1.197.4.493.5.886.5.394 0 .69-.2.886-.6.197-.2.296-.6.296-1zm8.565-2.3l-1.378 4.6h-.887l-.59-2c-.197-.5-.296-1-.394-1.5-.098.5-.197 1-.394 1.5l-.59 2h-.887L52.391 10h.984l.492 2.2.296 1.5c.098-.4.197-.9.394-1.5l.59-2.2h.788l.59 2.1c.197.5.296 1 .394 1.5l.296-1.5.59-2.1h1.182zm5.119 4.6h-.984V12c0-.8-.296-1.2-.886-1.2-.296 0-.493.1-.69.3-.196.2-.295.5-.295.8v2.7h-.984V10h.886v.7c.098-.2.295-.4.492-.6.295-.2.59-.3.886-.3.394 0 .788.1 1.083.4.394.3.492.8.492 1.5v2.9zm2.757 0h-.985V7.9h.985zm5.907-2.3c0 .7-.197 1.3-.59 1.7-.395.5-.985.7-1.675.7-.689 0-1.181-.2-1.575-.7-.394-.4-.59-1-.59-1.7s.196-1.3.59-1.7c.394-.4.985-.7 1.674-.7s1.181.2 1.575.7c.394.4.59 1 .59 1.7zm-.985 0c0-.4-.098-.8-.295-1.1-.197-.4-.492-.5-.886-.5s-.69.2-.886.5c-.197.3-.296.7-.296 1.1 0 .4.099.8.296 1.1.197.4.492.5.886.5s.689-.2.886-.6c.197-.2.295-.6.295-1zm5.809 2.3h-.886l-.099-.5c-.295.4-.787.6-1.28.6-.393 0-.787-.1-.984-.4-.197-.3-.394-.6-.394-.9 0-.6.197-1 .69-1.3.492-.3 1.082-.4 1.968-.4v-.1c0-.6-.295-.9-.886-.9-.492 0-.787.1-1.181.3l-.197-.7c.394-.3.886-.4 1.575-.4 1.182 0 1.772.6 1.772 1.9v1.7c-.098.5-.098.8-.098 1.1zm-.985-1.6v-.7c-1.083 0-1.673.3-1.673.9 0 .2.098.4.197.5.098.1.295.2.492.2s.394-.1.59-.2c.197-.1.296-.3.394-.5V13zm6.695 1.6h-.886v-.7c-.296.6-.788.8-1.477.8-.59 0-.984-.2-1.378-.6-.394-.4-.492-1-.492-1.7s.196-1.3.59-1.8c.394-.4.886-.6 1.379-.6.59 0 .984.2 1.28.6V8h.984v6.6zm-.985-1.9v-1.1c-.098-.2-.197-.4-.393-.6-.197-.2-.394-.2-.69-.2-.393 0-.689.2-.886.5-.197.3-.295.7-.295 1.2s.098.8.295 1.1c.197.3.493.5.886.5.296 0 .591-.1.788-.4.197-.4.295-.7.295-1zm9.55-.4c0 .7-.197 1.3-.59 1.7-.395.5-.985.7-1.674.7-.69 0-1.182-.2-1.576-.7-.393-.4-.59-1-.59-1.7s.197-1.3.59-1.7c.394-.5.985-.7 1.674-.7.69 0 1.181.2 1.575.7.394.4.591 1 .591 1.7zm-1.083 0c0-.4-.098-.8-.295-1.1-.197-.4-.493-.5-.886-.5-.394 0-.69.2-.886.5-.197.3-.296.7-.296 1.1 0 .4.099.8.296 1.1.197.4.492.5.886.5.393 0 .689-.2.886-.6.197-.2.295-.6.295-1zm6.498 2.3h-.985V12c0-.8-.295-1.2-.886-1.2-.295 0-.492.1-.689.3-.197.2-.295.5-.295.8v2.7h-.985V10h.886v.7c.099-.2.296-.4.492-.6.296-.2.591-.3.887-.3.393 0 .787.1 1.082.4.394.3.493.8.493 1.5v2.9zm6.694-3.8h-1.083V13c0 .6.197.8.591.8h.492v.8c-.197.1-.492.1-.787.1-.394 0-.69-.1-.886-.4-.197-.2-.296-.7-.296-1.2v-2.3h-.689V10h.69v-.8l.984-.3V10h1.083v.8h-.099zm5.317 3.8h-.985V12c0-.8-.295-1.2-.886-1.2-.492 0-.788.2-.984.7v3.1h-.985V7.9h.985v2.8c.295-.5.787-.8 1.378-.8.394 0 .787.1.984.4.296.3.493.9.493 1.5v2.8zm5.415-2.5v.5h-2.954c0 .5.197.8.394 1 .295.2.59.3.984.3.492 0 .886-.1 1.182-.2l.196.7c-.393.2-.886.3-1.476.3-.69 0-1.28-.2-1.674-.6-.394-.4-.59-1-.59-1.7s.196-1.3.59-1.7c.394-.5.886-.7 1.575-.7.69 0 1.182.2 1.477.7.197.3.295.8.295 1.4zm-.887-.3c0-.3-.098-.6-.197-.8-.197-.3-.393-.4-.787-.4-.296 0-.59.1-.788.4-.197.2-.295.5-.295.8h2.067z" fill="#FFF"/></g><g fill-rule="nonzero"><path d="M393.865 41.5h-118.14c-2.165 0-3.937-1.8-3.937-4v-32c0-2.2 1.772-4 3.938-4h118.14c2.165 0 3.937 1.8 3.937 4v32c0 2.2-1.772 4-3.938 4z" fill="#151A25"/><path d="M289.705 30.8l-8.86-1.3v-7.6h8.86v8.9zm0-9.6h-8.86V14l8.86-1.3v8.5zm12.11 11.3l-11.42-1.7v-8.9h11.42v10.6zm0-11.3h-11.42v-8.5l11.42-1.7v10.2zm15.259-4.5c-.393.2-1.28.4-2.264.4-1.083 0-2.067-.3-2.757-1-.59-.6-.984-1.6-.984-2.8 0-2.2 1.477-3.9 3.938-3.9.886 0 1.477.2 1.87.3l-.196.8c-.394-.2-.886-.3-1.576-.3-1.772 0-2.953 1.1-2.953 3s1.083 3 2.855 3c.59 0 1.083-.1 1.28-.2v-2.2h-1.477V13h2.363v3.7h-.099zm1.969-2.2c0 1.3.886 1.9 1.773 1.9.689 0 1.082-.1 1.476-.3l.197.7c-.295.2-.886.3-1.772.3-1.575 0-2.56-1.1-2.56-2.7s.886-2.9 2.462-2.9c1.673 0 2.165 1.5 2.165 2.5v.5h-3.74zm2.855-.7c0-.6-.295-1.6-1.28-1.6-.984 0-1.378.9-1.476 1.6h2.756zm3.249-3.7v1.5h1.379v.7h-1.379v2.9c0 .7.197 1 .69 1 .295 0 .393 0 .59-.1v.7c-.197.1-.492.1-.886.1-.492 0-.788-.1-.984-.4-.296-.3-.394-.8-.394-1.4v-2.9h-.788v-.7h.788v-1.3l.984-.1zm5.809 0c0 .3-.197.6-.59.6-.296 0-.592-.3-.592-.6s.296-.6.591-.6.59.3.59.6zm-1.083 6.9v-5.4h.984V17h-.984zm3.643-6.9v1.5h1.378v.7h-1.378v2.9c0 .7.196 1 .689 1 .295 0 .393 0 .59-.1v.7c-.197.1-.492.1-.886.1-.492 0-.787-.1-.984-.4-.296-.3-.394-.8-.394-1.4v-2.9h-.788v-.7h.788v-1.3l.985-.1zm9.451 4.2c0 2-1.379 2.9-2.658 2.9-1.379 0-2.56-1.1-2.56-2.8 0-1.8 1.181-2.9 2.56-2.9 1.673 0 2.658 1.1 2.658 2.8zm-4.135 0c0 1.2.689 2.1 1.575 2.1s1.575-.9 1.575-2.1c0-.9-.492-2.1-1.575-2.1s-1.575 1.1-1.575 2.1zm5.316-1.2v-1.5h.886l.099.9c.295-.5.886-1 1.772-1 .689 0 1.87.4 1.87 2.3V17h-.984v-3.1c0-.9-.296-1.6-1.182-1.6-.59 0-1.083.5-1.28 1 0 .1-.098.3-.098.5V17h-.984v-3.9h-.099zm-30.519 20.1l-2.658-10.9h1.476l1.28 5.5c.295 1.4.59 2.7.788 3.8.197-1.1.492-2.4.886-3.8l1.378-5.5h1.477l1.28 5.5c.295 1.3.59 2.6.787 3.7.197-1.2.493-2.4.886-3.8l1.379-5.5h1.378l-3.052 10.9h-1.477l-1.378-5.7c-.295-1.4-.59-2.5-.69-3.6-.196 1.1-.393 2.1-.787 3.6l-1.477 5.7h-1.476v.1zm12.798-10.1c0 .5-.295.9-.886.9a.89.89 0 0 1-.886-.9c0-.5.394-.9.886-.9.59.1.886.4.886.9zm-1.575 10.1v-7.8h1.378v7.8h-1.378zm3.15-5.7c0-.8 0-1.5-.098-2.1h1.28l.098 1.3c.394-.7 1.28-1.5 2.56-1.5 1.083 0 2.658.6 2.658 3.3v4.7h-1.378v-4.5c0-1.3-.493-2.3-1.772-2.3-.886 0-1.674.7-1.87 1.5-.1.2-.1.4-.1.7v4.7h-1.378v-5.8zm15.26-5.8v9.5c0 .7 0 1.5.098 2h-1.28l-.098-1.4c-.394.9-1.378 1.5-2.56 1.5-1.87 0-3.248-1.6-3.248-4 0-2.6 1.575-4.2 3.445-4.2 1.182 0 1.97.6 2.265 1.2v-4.7h1.378v.1zm-1.378 6.8c0-.2 0-.4-.099-.6a2.02 2.02 0 0 0-1.969-1.6c-1.476 0-2.264 1.3-2.264 3 0 1.6.788 2.9 2.264 2.9.886 0 1.772-.6 2.068-1.7 0-.2.098-.4.098-.6v-1.4h-.098zm10.14.7c0 2.9-1.969 4.2-3.84 4.2-2.067 0-3.642-1.6-3.642-4 0-2.6 1.674-4.2 3.84-4.2 2.165 0 3.642 1.6 3.642 4zm-6.005.1c0 1.7.984 3 2.362 3 1.28 0 2.363-1.3 2.363-3 0-1.3-.689-3-2.264-3-1.772-.1-2.461 1.5-2.461 3zm7.777-4l.985 4c.197.9.393 1.7.59 2.5.197-.8.394-1.6.69-2.5l1.28-4h1.18l1.182 3.9c.295.9.492 1.8.69 2.6.098-.8.295-1.6.59-2.5l1.083-3.9h1.378l-2.461 7.8h-1.28l-1.181-3.7c-.296-.9-.493-1.6-.69-2.6-.196.9-.393 1.7-.689 2.6l-1.28 3.7h-1.18l-2.265-7.8h1.378v-.1zm10.731 6.4c.394.3 1.182.6 1.87.6.985 0 1.477-.5 1.477-1.2s-.393-1.1-1.378-1.4c-1.378-.5-2.067-1.3-2.067-2.2 0-1.3.984-2.3 2.658-2.3.787 0 1.477.2 1.87.5l-.393 1c-.296-.2-.886-.5-1.576-.5-.787 0-1.28.5-1.28 1.1 0 .6.493.9 1.477 1.3 1.28.5 1.97 1.2 1.97 2.4 0 1.4-1.084 2.3-2.856 2.3-.886 0-1.575-.2-2.166-.5l.394-1.1zm11.125-7.7l-1.772 1-.296-1.1 2.265-1.2h1.181v10.5h-1.378zm11.026 3.8c0 3.6-1.28 5.5-3.544 5.5-1.969 0-3.347-1.9-3.446-5.4 0-3.5 1.477-5.5 3.545-5.5 2.264.1 3.445 2.1 3.445 5.4zm-5.611.2c0 2.7.787 4.3 2.067 4.3 1.378 0 2.068-1.7 2.068-4.4 0-2.6-.69-4.3-2.068-4.3-1.181 0-2.067 1.5-2.067 4.4z" fill="#FFF"/></g><path d="M258.57 41.5H140.43c-2.166 0-3.938-1.8-3.938-4v-32c0-2.2 1.772-4 3.938-4h118.14c2.166 0 3.938 1.8 3.938 4v32c0 2.2-1.772 4-3.938 4z" fill="#151A25" fill-rule="nonzero"/><path d="M10.14 20.1V9.6c0-.6.493-1.1.985-1.1s.689.1.984.3L31.11 19.4c.394.2.59.5.59.8 0 .3-.196.6-.59.8l-19 10.6c-.198.1-.493.3-.985.3s-.985-.5-.985-1.1V20.1z" fill="url(#a)" transform="translate(136 1)"/><path d="M22.447 20.2L10.927 8.5h.198c.492 0 .689.1.984.3l13.98 7.8-3.642 3.6z" fill="url(#b)" transform="translate(136 1)"/><path d="M25.99 23.7l-3.543-3.6 3.642-3.7 5.021 2.8c.394.2.59.5.59.8 0 .3-.196.6-.59.8l-5.12 2.9z" fill="url(#c)" transform="translate(136 1)"/><path d="M11.026 31.7l11.42-11.6 3.545 3.6-13.882 7.7c-.295.2-.492.3-1.083.3.099 0 .099 0 0 0z" fill="url(#d)" transform="translate(136 1)"/><path d="M206.49 35.4c-.492-.4-.886-1.1-1.083-1.5l1.575-.7c.099.2.296.5.492.8.394.4.985.8 1.576.8.59 0 1.28-.3 1.673-.8.296-.5.493-1 .493-1.7v-.6c-1.182 1.5-3.643 1.3-5.021-.3-1.477-1.6-1.477-4.3 0-5.9 1.476-1.5 3.642-1.7 4.922-.3v-.7h1.674V32c0 1.9-.69 3-1.575 3.7-.591.5-1.477.7-2.265.7-.886-.1-1.772-.4-2.461-1zm41.25.4l1.674-4-2.954-6.9h1.674l2.068 4.9 2.067-4.9h1.674l-4.529 10.9h-1.674zm-7.974-3.8c-.492-.5-.69-1.2-.69-1.9 0-.6.198-1.2.591-1.6.69-.7 1.674-1 2.757-1 .69 0 1.28.1 1.772.4 0-1.2-.984-1.7-1.772-1.7-.69 0-1.378.4-1.674 1.1l-1.476-.6c.295-.7 1.083-2 3.052-2 .984 0 1.969.3 2.56 1 .59.7.787 1.5.787 2.6v4.2h-1.674v-.7c-.197.3-.59.5-.886.7-.394.2-.886.3-1.378.3-.59-.1-1.477-.3-1.97-.8zm-52.474-3.6c0-2 1.477-4.2 4.135-4.2 2.56 0 4.135 2.2 4.135 4.2s-1.477 4.2-4.135 4.2c-2.658 0-4.135-2.2-4.135-4.2zm8.86 0c0-2 1.477-4.2 4.136-4.2 2.56 0 4.134 2.2 4.134 4.2s-1.476 4.2-4.134 4.2c-2.56 0-4.135-2.2-4.135-4.2zm-19.985 2.2c-2.46-2.5-2.362-6.6.099-9.2 1.28-1.3 2.855-1.9 4.529-1.9 1.575 0 3.15.6 4.331 1.8l-1.181 1.3c-1.772-1.8-4.627-1.7-6.3.1a4.886 4.886 0 0 0 0 6.7c1.771 1.9 4.725 2 6.497.1.59-.6.787-1.4.886-2.2h-4.135v-1.8h5.809c.098.4.098.9.098 1.4 0 1.5-.59 3-1.575 4-1.083 1.1-2.658 1.7-4.234 1.7-1.772-.1-3.544-.7-4.824-2zm41.645.7c-1.477-1.6-1.477-4.3 0-6 1.476-1.6 3.938-1.6 5.316 0 .492.5.788 1.2 1.083 1.9l-5.415 2.3a2.1 2.1 0 0 0 1.97 1.3c.885 0 1.476-.3 2.067-1.2l1.476 1c-.197.2-.393.4-.492.6-1.674 1.7-4.529 1.7-6.005.1zm10.238 1.2V21.4h3.545c2.067 0 3.74 1.5 3.74 3.3 0 1.8-1.476 3.3-3.347 3.3h-2.166v4.4h-1.772v.1zm8.27 0V21.4h1.674v11.1h-1.674zm-22.25-.2V19.9h1.773v12.4h-1.772zm30.028-3.1c-.394-.3-.985-.4-1.576-.4-1.18 0-1.87.6-1.87 1.3 0 .7.69 1.1 1.378 1.1.985 0 2.068-.8 2.068-2zm-50.407-.8c0-1.2-.787-2.5-2.264-2.5-1.477 0-2.264 1.3-2.264 2.5s.787 2.5 2.264 2.5c1.378 0 2.264-1.3 2.264-2.5zm8.86 0c0-1.2-.787-2.5-2.263-2.5-1.477 0-2.265 1.3-2.265 2.5s.788 2.5 2.265 2.5c1.476 0 2.264-1.3 2.264-2.5zm8.763.7c0-.1 0-.2.098-.3v-.9c0-.1-.098-.3-.098-.4-.295-1-1.181-1.7-2.067-1.7-1.182 0-2.166 1.2-2.166 2.5 0 1.4.984 2.5 2.264 2.5.788.1 1.575-.6 1.969-1.7zm7.187-.9l3.642-1.6c-.393-.7-.984-.9-1.476-.9-1.477.1-2.363 1.7-2.166 2.5zm15.063-3.4c0-1-.788-1.7-1.871-1.7h-1.969v3.5h2.067c.985 0 1.773-.8 1.773-1.8z" fill="#FFF"/><path fill="#FFF" d="M249.02 33.8h-.098v-.1h.098-.098v.1zm0 0c0-.1 0-.1 0 0 0-.1 0-.1 0 0zm0 0v-.1.1zm0-.1v.1-.1zm0 .1v-.1.1zm0 0c0-.1 0-.1 0 0zm0 0c0-.1 0-.1 0 0zm.099 0c0-.1 0-.1 0 0 0-.1 0-.1 0 0 0-.1 0-.1 0 0zm0 0c0-.1 0-.1 0 0zm0-.1v.1zm0 .1v-.1.1zm0 0c0-.1 0-.1 0 0 0-.1 0-.1 0 0zm0-.1c0 .1 0 .1 0 0 0 .1 0 .1 0 0zm0 .1c0-.1 0-.1 0 0 0-.1 0-.1 0 0 0-.1 0-.1 0 0 0-.1 0-.1 0 0zm.098 0c0-.1 0-.1 0 0-.098-.1-.098-.1 0 0-.098 0-.098 0 0 0zm0-.1c0 .1 0 .1 0 0 0 .1-.098.1 0 0-.098 0 0 0 0 0zm0 .1v-.1.1-.1.1-.1zm0 0c0-.1 0-.1 0 0 0-.1 0-.1 0 0 0-.1 0-.1 0 0 0-.1 0-.1 0 0 0-.1 0-.1 0 0 0-.1 0-.1 0 0 0-.1 0-.1 0 0 0-.1 0-.1 0 0zm.099-.1h-.099.099v.1-.1zm0 .1v-.1.1zm0 0c0-.1 0-.1 0 0 0-.1 0-.1 0 0z"/><path d="M174.79 11.6c0-1.8 1.279-2.9 2.854-2.9 1.083 0 1.772.5 2.265 1.2l-.788.5c-.295-.4-.788-.7-1.477-.7-1.083 0-1.87.8-1.87 2s.787 2 1.87 2c.59 0 1.083-.3 1.28-.5v-.9h-1.575v-.9h2.658v2.1c-.492.6-1.28 1-2.264 1-1.674 0-2.954-1.2-2.954-2.9zm6.398 2.8V8.8h3.741v.9h-2.855v1.4h2.757v.9h-2.757v1.6h2.855v.9zm6.498 0V9.7h-1.674v-.9h4.332v.9h-1.673v4.7zm6.005 0V8.8h.985v5.6h-.985zm3.643 0V9.7h-1.674v-.9h4.332v.9h-1.673v4.7zm5.809-2.8c0-1.7 1.181-2.9 2.855-2.9 1.673 0 2.855 1.2 2.855 2.9s-1.182 2.9-2.855 2.9c-1.674 0-2.855-1.3-2.855-2.9zm4.627 0c0-1.2-.69-2-1.87-2-1.084 0-1.871.9-1.871 2 0 1.2.689 2 1.87 2 1.182 0 1.87-.9 1.87-2zm6.005 2.8l-2.855-4v4h-.984V8.8h.984l2.855 3.9V8.8h.985v5.6z" fill="#FFF" fill-rule="nonzero"/></g></svg>