<svg width="1000" height="199" xmlns="http://www.w3.org/2000/svg"><g fill="none" fill-rule="evenodd"><path d="M964.683 198.035c-100.801-6.037-121.426-31.69-169.03-22.263-47.605 9.426-59.902 21.216-173.355 0-36.648-6.854-77.38 15.128-177.673-18.128-100.292-33.256-131.404 54.383-254.096 27.908-17.316-3.736-56.48-4.793-82.6 0C78.693 190.917 42.717 196.086 0 201.058c592.034 4.396 929.938 6.352 1013.712 5.87 54.415-.312-35.824-8.102-49.029-8.893z" fill="#FFF"/><path d="M505.443 54h-65.886c-4.45 0-8.057 3.767-8.057 8.414v33.172c0 4.647 3.607 8.414 8.057 8.414h65.886c4.45 0 8.057-3.767 8.057-8.414V62.414c0-4.647-3.607-8.414-8.057-8.414z" fill="#4439A8" fill-rule="nonzero"/><path d="M434.967 110c3.73-.217 12.714-1.899 13.533-13h-8.308c-.425 7.462-3.656 10.866-5.517 12.23a.416.416 0 0 0-.148.489c.033.086.093.16.172.21a.46.46 0 0 0 .268.07z" fill="#4439A8" fill-rule="nonzero"/><path d="M442.5 79h59m-59 7h59m-59-21h59m-59 7h59m-59 21h28" stroke="#FFF" stroke-width=".875" stroke-linecap="round" stroke-linejoin="round"/><path d="M667.375 104h-62.75c-4.488 0-8.125 3.634-8.125 8.117v29.766c0 4.483 3.637 8.117 8.125 8.117h62.75c4.488 0 8.125-3.634 8.125-8.117v-29.766c0-4.483-3.637-8.117-8.125-8.117z" fill="#4439A8" fill-rule="nonzero"/><path d="M645.5 122l-10 10m0-10l10 10" stroke="#FFF" stroke-width=".875"/><path d="M671.02 155.999c-3.73-.217-12.714-1.898-13.52-12.999h8.307c.425 7.461 3.655 10.865 5.517 12.23a.417.417 0 0 1-.031.705.457.457 0 0 1-.274.064zM423.388 128h-69.776c-4.48 0-8.112 3.832-8.112 8.558v27.884c0 4.726 3.632 8.558 8.112 8.558h69.776c4.48 0 8.112-3.832 8.112-8.558v-27.884c0-4.726-3.632-8.558-8.112-8.558z" fill="#4439A8" fill-rule="nonzero"/><path d="M356.5 154h59m-59 7h59m-59-22h59m-59 7h59" stroke="#FFF" stroke-width=".875" stroke-linecap="round" stroke-linejoin="round"/><path d="M672.893 19h-94.786C573.63 19 570 23.755 570 29.62v18.76c0 5.865 3.629 10.62 8.107 10.62h94.786C677.37 59 681 54.245 681 48.38V29.62c0-5.865-3.629-10.62-8.107-10.62z" fill="#4439A8" fill-rule="nonzero"/><path d="M678.52 64.999C674.79 64.782 665.805 63.1 665 52h8.307c.425 7.461 3.655 10.865 5.517 12.23a.417.417 0 0 1-.031.705.457.457 0 0 1-.274.064zM394.388 35h-69.776c-4.48 0-8.112 3.657-8.112 8.169v32.662c0 4.512 3.632 8.169 8.112 8.169h69.776c4.48 0 8.112-3.657 8.112-8.169V43.169c0-4.512-3.632-8.169-8.112-8.169z" fill="#4439A8" fill-rule="nonzero"/><path stroke="#FFF" stroke-width=".875" stroke-linecap="round" d="M367.5 53l-11.531 11-3.469-3.553"/><path d="M582.5 32h87m-87 7h87m-87 8h41" stroke="#FFF" stroke-width=".875" stroke-linecap="round" stroke-linejoin="round"/><path d="M318.934 90c3.467-.217 11.817-1.899 12.566-13h-7.71c-.395 7.462-3.398 10.866-5.128 12.23a.445.445 0 0 0-.137.489c.03.086.087.16.16.21a.4.4 0 0 0 .249.07z" fill="#4439A8" fill-rule="nonzero"/><path d="M406.5 159v40m42-40v40" stroke="#475056" stroke-width=".875"/><path fill="#FFC774" fill-rule="nonzero" d="M457.5 119h-63v63h63zm173-22h-173v85h173z"/><path d="M416.5 119v45M405 132a3.5 3.5 0 1 0 0-7 3.5 3.5 0 0 0 0 7z" stroke="#FFF" stroke-width=".525" stroke-linecap="square"/><path d="M421.542 141s-1.517-15 13.776-15 26.182 15 26.182 15m4-9l-6-1.741 3.056-4.073a.466.466 0 0 1 .191-.153.416.416 0 0 1 .447.076.518.518 0 0 1 .142.209L465.5 132z" fill="#24272D" fill-rule="nonzero"/><path d="M455.459 126.19l3.041 4.063-6 1.747 2.153-5.672a.536.536 0 0 1 .148-.215.43.43 0 0 1 .461-.079.487.487 0 0 1 .197.156z" fill="#24272D" fill-rule="nonzero"/><path d="M459.5 142c4.418 0 8-2.91 8-6.5s-3.582-6.5-8-6.5-8 2.91-8 6.5 3.582 6.5 8 6.5z" fill="#24272D" fill-rule="nonzero"/><path fill="#FFC774" fill-rule="nonzero" d="M469.5 140h-17v6h17z"/><path d="M514.5 140h-98" stroke="#FFF" stroke-width=".525" stroke-linecap="square"/><path d="M456.5 133c0-.553.672-1 1.501-1 .83 0 1.499.457 1.499 1m3 0c0-.553.671-1 1.5-1s1.5.457 1.5 1" fill="#FFF" fill-rule="nonzero"/><path d="M459.5 137s1.554-.12 1.554-2c0 0 .474 1.852 1.446 1.852" stroke="#FFF" stroke-width=".525" stroke-linejoin="round"/><path d="M460.713 134h1.574c.044.004.086.02.121.044a.213.213 0 0 1 .077.093.19.19 0 0 1 .01.116.204.204 0 0 1-.06.103l-.787.598a.259.259 0 0 1-.296 0l-.787-.598a.204.204 0 0 1-.06-.103.19.19 0 0 1 .01-.116.213.213 0 0 1 .077-.093.253.253 0 0 1 .12-.044z" fill="#EA6F57" fill-rule="nonzero"/><path d="M438.261 149.069c-2.24-2.607-7.64 2.714-11.019.557-5.31-3.391 4.071-18.323.745-20.509-2.057-1.348-7.298 9.213-6.38 16.959.567 4.785 4.67 8.249 9.788 7.9 3.038-.208 8.286-3.255 6.866-4.907z" fill="#24272D" fill-rule="nonzero"/><path d="M576.5 159v40m42-40v40" stroke="#475056" stroke-width=".875"/><path d="M587.559 100.944l-19.267-2.703-2.744 12.694 20.573 7.257c7.04 2.486 14.21-3.398 13.3-10.92-.909-7.522-1.88-14.962-2.287-15.931-.852-2.024-3.839-10.543-21.88-11.315-18.04-.772-26.754 16.081-26.754 16.081L585.79 130m-8.49-71.815c1.27-8.195-3.652-15.816-10.997-17.023-7.347-1.207-14.33 4.458-15.603 12.653-1.27 8.195 3.654 15.816 10.999 17.023 7.345 1.207 14.329-4.458 15.601-12.653z" fill="#24272D" fill-rule="nonzero"/><path d="M570.322 86.964a5.502 5.502 0 0 1-3.168-1.52 5.596 5.596 0 0 1-1.62-3.14l-2.947-18.748a5.616 5.616 0 0 1 .934-4.214 5.496 5.496 0 0 1 3.633-2.274 5.462 5.462 0 0 1 2.18.094 5.509 5.509 0 0 1 3.428 2.577c.373.638.618 1.346.717 2.08l2.952 18.732a5.601 5.601 0 0 1-.982 4.146 5.532 5.532 0 0 1-1.579 1.476 5.468 5.468 0 0 1-2.017.754 5.524 5.524 0 0 1-1.531.037z" fill="#EA6F57" fill-rule="nonzero"/><path d="M566.505 77.721l-1.175.174a9.655 9.655 0 0 1-4.09-.272 9.479 9.479 0 0 1-3.582-1.94 9.2 9.2 0 0 1-2.398-3.239 8.952 8.952 0 0 1-.754-3.923l.238-6.67a9.024 9.024 0 0 1 2.408-5.815 9.481 9.481 0 0 1 5.682-2.946 9.65 9.65 0 0 1 3.666.2c1.196.3 2.319.828 3.308 1.551a9.264 9.264 0 0 1 2.445 2.667 8.992 8.992 0 0 1 1.214 3.375l.94 6.495a8.984 8.984 0 0 1-1.77 6.754c-1.478 1.936-3.682 3.226-6.132 3.589z" fill="#EA6F57" fill-rule="nonzero"/><path stroke="#25282D" stroke-width=".525" d="M559.476 63l-1.976 5.678 2 .322"/><path d="M562.5 66a1 1 0 1 0 0-2 1 1 0 0 0 0 2zm-6-1a1 1 0 1 0 0-2 1 1 0 0 0 0 2z" fill="#24272D" fill-rule="nonzero"/><path d="M563.5 71.002s-1.313-.086-2 .998" stroke="#25282D" stroke-width=".525"/><path d="M598.752 76.952s1.568 12.17-8.74 12.047c-17.063-.206-19.802-11.306-18.62-17.719.467-2.555 2.065-4.447 3.84-6.258-9.202-1.998-8.574-7.963-8.574-7.963s-17.11 8.03-16.116-2.668c.993-10.698 11.103-14.928 18.052-14.337 16.15 1.372 16.627 11.562 20.96 13.03 24.568 8.325 9.198 23.868 9.198 23.868z" fill="#24272D" fill-rule="nonzero"/><path d="M576.965 65.43c1.115-2.064.432-4.69-1.527-5.866-1.96-1.175-4.452-.455-5.567 1.61l-1.836 3.396c-1.115 2.064-.432 4.69 1.527 5.866 1.96 1.175 4.452.455 5.567-1.61l1.836-3.396z" fill="#EA6F57" fill-rule="nonzero"/><path d="M574.5 62l-3 5" stroke="#25282D" stroke-width=".525"/><path d="M568.5 98l19 3m-5-1l-2-7" stroke="#FFF" stroke-width=".525" stroke-linecap="square"/><path d="M554.5 99.448s8.11-6.501 14.903 1.686c6.792 8.187-5.087 6.773-5.087 6.773" fill="#EA6F57" fill-rule="nonzero"/><path fill="#272F41" fill-rule="nonzero" d="M569.5 109h-39.76L506.5 92h39.76z"/><path fill="#24272D" fill-rule="nonzero" d="M489.5 199h25.754l3.246-.035-2.484-9.965-11.65.898zm-21-47.395l23.313 14.59 2.96 1.805 5.727-16.568L488.16 150z"/><path d="M533.113 116l44.387 25.151h-56.856V190H496.5v-59.33c0-8.103 6.983-14.67 15.58-14.67h21.033z" fill="#EA6F57" fill-rule="nonzero"/><path d="M532.705 121.968l23.474 17.488c8.546 6.366 20.434 3.524 25.538-6.126l6.783-12.607-47.785-25.763c-7.278-3.92-16.17-1.814-21.164 5.017l-35.051 47.94L502.695 163l30.01-41.032z" fill="#EA6F57" fill-rule="nonzero"/><path fill="#FFC774" fill-rule="nonzero" d="M630.5 119h-63v63h63z"/><path d="M524.5 116l30.916 23.532S559.141 143 566.5 143m-60-26s2.69-1 5.542-1H524.5m-28 15v28" stroke="#FFF" stroke-width=".525"/><path d="M544.468 63h-35.936c-1.122 0-2.032.92-2.032 2.054v25.892c0 1.135.91 2.054 2.032 2.054h35.936c1.122 0 2.032-.92 2.032-2.054V65.054c0-1.135-.91-2.054-2.032-2.054z" fill="#2E3A55" fill-rule="nonzero"/><path d="M588.5 120v45M578 132a3.5 3.5 0 1 0 .001-6.999A3.5 3.5 0 0 0 578 132zm4.5-13h48" stroke="#FFF" stroke-width=".525" stroke-linecap="square"/><path d="M526.5 82a4 4 0 1 0 0-8 4 4 0 0 0 0 8z" fill="#FFF" fill-rule="nonzero"/></g></svg>