<svg width="948" height="246" xmlns="http://www.w3.org/2000/svg"><g fill="none" fill-rule="evenodd"><path d="M637 240h39a5 5 0 0 0 5-5V87a5 5 0 0 0-5-5h-39a5 5 0 0 0-5 5v148a5 5 0 0 0 5 5m-327.463-47H248a5 5 0 0 1-5-5V11a5 5 0 0 0-5-5h-38a5 5 0 0 0-5 5v224a5 5 0 0 0 5 5h142.629a1.37 1.37 0 0 0 1.371-1.371c0-.425-.198-.822-.536-1.08-12.915-9.861-23.219-23.965-29.213-41.194a4.994 4.994 0 0 0-4.714-3.355m171.089-54.786c0 37.948-12.78 54.971-52.535 54.971-45.082 0-52.18-27.308-52.18-54.97l.24-127.202A5.005 5.005 0 0 0 371.143 6h-37.894a5.006 5.006 0 0 0-5.008 4.994L328 138.214C328 207.371 371.63 240 428.294 240 485.31 240 529 206.529 529 138.08V87.056a5.006 5.006 0 0 0-5.008-5.003h-38.447a5.006 5.006 0 0 0-5.008 5.012l.089 51.15z" fill="#FFF"/><path d="M675 6H485a5 5 0 0 0-5 5v38a5 5 0 0 0 5 5h66a5 5 0 0 1 5 5v176a5 5 0 0 0 5 5h38a5 5 0 0 0 5-5V59a5 5 0 0 1 5-5h66a5 5 0 0 0 5-5V11a5 5 0 0 0-5-5m149.837 185.213c-37.15 0-68.057-30.907-68.057-68.057 0-37.15 30.907-68.37 68.057-68.37 37.15 0 67.432 31.22 67.432 68.37 0 37.15-30.281 68.057-67.432 68.057M824.84 6C760.246 6 708 58.246 708 123.158 708 187.753 760.246 240 824.84 240 889.12 240 942 187.753 942 123.158 942 58.246 889.12 6 824.84 6" fill="#FFF"/><path d="M8 240V82h49v158z"/><path d="M13 240h39a5 5 0 0 0 5-5V87a5 5 0 0 0-5-5H13a5 5 0 0 0-5 5v148a5 5 0 0 0 5 5" fill="#FFF"/><path d="M12.991 6A4.99 4.99 0 0 0 8 10.988v37.91a4.99 4.99 0 0 0 4.991 4.989h71.874c17.969.024 32.385 15.3 32.385 33.243 0 16.366-12.113 29.473-27.972 31.563-2.505.33-4.413 2.395-4.413 4.92v39.395c0 2.899 2.464 5.171 5.358 4.98C132.632 165.195 166 130.134 166 87.196c0-44.95-36.214-81.132-81.135-81.192L12.991 6z" fill="#FFF"/></g></svg>