<svg width="413" height="254" xmlns="http://www.w3.org/2000/svg"><g fill="none" fill-rule="evenodd"><path d="M396.985 97.694c-14.783-46.126-53.202-81.177-92.496-83.82-20.89-1.406-40.765 6.329-57.66 23.4-18.668 18.863-33.278 48.6-42.742 89.07-9.322 39.862-.949 71.989 21.707 93.457 20.201 19.144 50.674 28.303 82.063 25.535 31.842-2.807 60.763-17.499 78.397-41.142 20.018-26.839 24.588-63.26 10.73-106.5z" stroke="#FFF"/><path d="M71.566 219.03c40.517 26.544 92.432 29.606 124.633 6.932 17.12-12.055 27.698-30.573 30.084-54.472 2.637-26.408-4.723-58.712-22.836-96.119-17.842-36.845-44.568-56.543-75.685-58.97-27.747-2.164-57.192 9.895-79.845 31.8-22.98 22.221-36.208 51.839-35.034 81.31 1.333 33.456 20.703 64.637 58.683 89.52z" stroke="#FFF"/><path d="M136 183.3l37.4-8.1s-13.5-91.3-13.6-91.9c-.1-.6-.6-1-1.1-1-.5 0-10-.7-10-.7s-6.6-6.6-7.4-7.3c-.2-.2-.4-.3-.6-.4L136 183.3zm3.1-109.6c-.1 0-.3.1-.4.1-.1 0-1.5.4-3.7 1.1-2.2-6.4-6.1-12.3-13-12.3h-.6c-2-2.5-4.4-3.6-6.5-3.6-16.1 0-23.8 20.1-26.2 30.3-6.2 1.9-10.7 3.3-11.2 3.5-3.5 1.1-3.6 1.2-4 4.5-.4 2.4-9.5 72.9-9.5 72.9l70.3 13.2 4.8-109.7zm-18.3 4.9v.7c-3.9 1.2-8.2 2.5-12.4 3.8 2.4-9.2 6.9-13.7 10.8-15.4 1 2.6 1.6 6.1 1.6 10.9zm-6.4-15.3c.7 0 1.4.2 2.1.7-5.1 2.4-10.7 8.5-13 20.7-3.4 1.1-6.7 2.1-9.8 3 2.7-9.3 9.2-24.4 20.7-24.4zm2.8 54.3s-4.2-2.2-9.2-2.2c-7.5 0-7.8 4.7-7.8 5.9 0 6.4 16.8 8.9 16.8 24 0 11.9-7.5 19.5-17.7 19.5-12.2 0-18.4-7.6-18.4-7.6l3.3-10.8s6.4 5.5 11.8 5.5c3.5 0 5-2.8 5-4.8 0-8.4-13.8-8.8-13.8-22.6 0-11.6 8.3-22.9 25.2-22.9 6.5 0 9.7 1.9 9.7 1.9l-4.9 14.1zm6.4-50.6c3.6.4 5.9 4.5 7.4 9.1-1.8.6-3.8 1.2-6 1.9v-1.3c0-3.9-.5-7.1-1.4-9.7z" fill="#8AB63E" fill-rule="nonzero"/><g fill="#4E42C3"><path d="M290.448 166h11.29c.799 0 1.447-.637 1.447-1.423v-42.131c0-.786-.648-1.424-1.448-1.424h-11.29c-.799 0-1.447.638-1.447 1.424v42.13c0 .787.648 1.424 1.448 1.424"/><path d="M310.892 100h-20.47c-.785 0-1.422.64-1.422 1.43v10.869c0 .79.637 1.43 1.422 1.43h20.47c5.118.007 9.224 4.386 9.224 9.53 0 4.693-3.45 8.45-7.968 9.05a1.43 1.43 0 0 0-1.256 1.41v11.294c0 .83.702 1.483 1.526 1.428 12.078-.8 21.582-10.853 21.582-23.163 0-12.887-10.314-23.26-23.108-23.277"/><path d="M305.5 177.744c-24.988 0-45.244-20.257-45.244-45.244s20.256-45.244 45.244-45.244c24.987 0 45.244 20.257 45.244 45.244s-20.257 45.244-45.244 45.244M305.5 74c-32.309 0-58.5 26.191-58.5 58.5s26.191 58.5 58.5 58.5 58.5-26.191 58.5-58.5S337.809 74 305.5 74"/></g></g></svg>